# xmcd CD database file
#
# Track frame offsets:
#	150
#	16257
#	32617
#	48290
#	67467
#	81245
#	99875
#	111377
#	135562
#	152962
#	162507
#	182170
#	201217
#
# Disc length: 2857 seconds
#
# Revision: 0
# Processed by: cddbd v1.5.2PL0 Copyright (c) Steve Scherf et al.
# Submitted via: CD2WAV32(JP) R3.22
#
DISCID=b20b270d
DTITLE=外山喜雄&デキシー･セインツ - デキシー・マジック　ビビディ・バビディ・ブー
DYEAR=2000
DGENRE=Country
TTITLE0=Bibbidi-Bobbidi-Boo
TTITLE1=I Wan'na Be Like You
TTITLE2=The Bere Necessities
TTITLE3=Hakuna Matata
TTITLE4=Friend Like Me
TTITLE5=Ev'ry Wants To Be A Cat
TTITLE6=The Siamese Cat Song
TTITLE7=LA-LA-LU～Bella Notte
TTITLE8=Heigh-Ho
TTITLE9=Cruella De Vil
TTITLE10=Chim Chim Cher-ee
TTITLE11=When You Wish Upon A Star
TTITLE12=Prince Ali
EXTD=
EXTT0=
EXTT1=
EXTT2=
EXTT3=
EXTT4=
EXTT5=
EXTT6=
EXTT7=
EXTT8=
EXTT9=
EXTT10=
EXTT11=
EXTT12=
PLAYORDER=
